<svg id="Capa_1" enable-background="new 0 0 469.333 469.333" height="512" viewBox="0 0 469.333 469.333" width="512" xmlns="http://www.w3.org/2000/svg"><g><g id="Layer_3_96_" fill="#662d91"><path d="m234.667 0c-129.603 0-234.667 105.064-234.667 234.667s105.064 234.667 234.667 234.667 234.666-105.064 234.666-234.667-105.063-234.667-234.666-234.667zm158.521 240.083c-34.42 54.749-93.878 88.725-158.522 90.583-64.657-1.811-124.136-35.799-158.522-90.583-1.967-3.343-1.967-7.49 0-10.833 34.42-54.749 93.878-88.725 158.522-90.583 64.657 1.811 124.136 35.799 158.522 90.583 1.967 3.343 1.967 7.49 0 10.833z"/><circle cx="234.667" cy="234.667" r="32"/><path d="m234.667 160c-54.879 1.787-105.63 29.591-136.676 74.88 31.464 44.765 82.003 72.296 136.676 74.453 54.879-1.787 105.63-29.591 136.676-74.88-31.464-44.764-82.003-72.295-136.676-74.453zm0 128c-29.455 0-53.333-23.878-53.333-53.333s23.878-53.333 53.333-53.333 53.333 23.877 53.333 53.333c-.031 29.442-23.891 53.302-53.333 53.333z"/></g></g></svg>